PathFileType	4	(X/Y/Z)	C:\Users\Kira\Nextcloud\Documents\MA\Daten\C3D\P01\post\Stand01\marker_experimental.trc																																																																																																																																																																																																																																																																																																																																																																																																																																																																																																																																																																																																																																																																																																																			
DataRate	CameraRate	NumFrames	NumMarkers	Units	OrigDataRate	OrigDataStartFrame	OrigNumFrames																																																																																																																																																																																																																																																																																																																																																																																																																																																																																																																																																																																																																																																																																																															
150	150	2	231	mm	150	56	150																																																																																																																																																																																																																																																																																																																																																																																																																																																																																																																																																																																																																																																																																																															
Frame#	Time	LFHD			LBHD			RFHD			RBHD			C7			T10			CLAV			STRN			RBAK			LSHO			LUPA			LELB			LFRA			LWRB			LWRA			LFIN			RSHO			RUPA			RELB			RFRA			RWRB			RWRA			RFIN			SACR			LASI			RASI			LT1			LT2			LT3			LS1			LS2			LS3			LHEE			LTOE			RT1			RT2			RT3			RS1			RS2			RS3			RHEE			RTOE			PELO			PELA			PELL			PELP			SACO			SACA			SACL			SACP			LFEO			LFEA			LFEL			LFEP			RFEO			RFEA			RFEL			RFEP			LTIO			LTIA			LTIL			LTIP			RTIO			RTIA			RTIL			RTIP			LFOO			LFOA			LFOL			LFOP			RFOO			RFOA			RFOL			RFOP			LTOO			LTOA			LTOL			LTOP			RTOO			RTOA			RTOL			RTOP			HEDO			HEDA			HEDL			HEDP			LCLO			LCLA			LCLL			LCLP			RCLO			RCLA			RCLL			RCLP			TRXO			TRXA			TRXL			TRXP			LHUO			LHUA			LHUL			LHUP			LRAO			LRAA			LRAL			LRAP			LHNO			LHNA			LHNL			LHNP			RHUO			RHUA			RHUL			RHUP			RRAO			RRAA			RRAL			RRAP			RHNO			RHNA			RHNL			RHNP			LPelvisAngles			RPelvisAngles			LFootProgressAngles			RFootProgressAngles			LHipAngles			RHipAngles			LKneeAngles			RKneeAngles			LAnkleAngles			RAnkleAngles			LFFootAngles			RFFootAngles			LAbsAnkleAngle			RAbsAnkleAngle			RNeckAngles			LNeckAngles			RSpineAngles			LSpineAngles			LShoulderAngles			LElbowAngles			LWristAngles			RShoulderAngles			RElbowAngles			RWristAngles			RThoraxAngles			LThoraxAngles			RHeadAngles			LHeadAngles			LHipPower			LKneePower			LAnklePower			RHipPower			RKneePower			RAnklePower			LWaistPower			RWaistPower			LNeckPower			RNeckPower			LShoulderPower			RShoulderPower			LElbowPower			RElbowPower			LWristPower			RWristPower			F_ForcePlate1			F_ForcePlate2			F_ForcePlate3			LGRF			RGRF			LHipForce			RHipForce			LKneeForce			RKneeForce			LAnkleForce			RAnkleForce			LWaistForce			RWaistForce			LNeckForce			RNeckForce			LShoulderForce			RShoulderForce			LElbowForce			RElbowForce			LWristForce			RWristForce			LNormalisedGRF			RNormalisedGRF			LGroundReactionForce			RGroundReactionForce			LHipMoment			RHipMoment			LKneeMoment			RKneeMoment			LAnkleMoment			RAnkleMoment			LWaistMoment			RWaistMoment			LNeckMoment			RNeckMoment			LShoulderMoment			RShoulderMoment			LElbowMoment			RElbowMoment			LWristMoment			RWristMoment			LKNE			RKNE			LANK			RANK			LKJC			RKJC			LAJC			RAJC			LTHI			RTHI			LTIB			RTIB			P_ForcePlate1			P_ForcePlate2			P_ForcePlate3			CentreOfMass			CentreOfMassFloor			funktRKJC			funktLKJC			funktRHIP			funktLHIP			LHJC			RHJC			LHF		
		X1	Y1	Z1	X2	Y2	Z2	X3	Y3	Z3	X4	Y4	Z4	X5	Y5	Z5	X6	Y6	Z6	X7	Y7	Z7	X8	Y8	Z8	X9	Y9	Z9	X10	Y10	Z10	X11	Y11	Z11	X12	Y12	Z12	X13	Y13	Z13	X14	Y14	Z14	X15	Y15	Z15	X16	Y16	Z16	X17	Y17	Z17	X18	Y18	Z18	X19	Y19	Z19	X20	Y20	Z20	X21	Y21	Z21	X22	Y22	Z22	X23	Y23	Z23	X24	Y24	Z24	X25	Y25	Z25	X26	Y26	Z26	X27	Y27	Z27	X28	Y28	Z28	X29	Y29	Z29	X30	Y30	Z30	X31	Y31	Z31	X32	Y32	Z32	X33	Y33	Z33	X34	Y34	Z34	X35	Y35	Z35	X36	Y36	Z36	X37	Y37	Z37	X38	Y38	Z38	X39	Y39	Z39	X40	Y40	Z40	X41	Y41	Z41	X42	Y42	Z42	X43	Y43	Z43	X44	Y44	Z44	X45	Y45	Z45	X46	Y46	Z46	X47	Y47	Z47	X48	Y48	Z48	X49	Y49	Z49	X50	Y50	Z50	X51	Y51	Z51	X52	Y52	Z52	X53	Y53	Z53	X54	Y54	Z54	X55	Y55	Z55	X56	Y56	Z56	X57	Y57	Z57	X58	Y58	Z58	X59	Y59	Z59	X60	Y60	Z60	X61	Y61	Z61	X62	Y62	Z62	X63	Y63	Z63	X64	Y64	Z64	X65	Y65	Z65	X66	Y66	Z66	X67	Y67	Z67	X68	Y68	Z68	X69	Y69	Z69	X70	Y70	Z70	X71	Y71	Z71	X72	Y72	Z72	X73	Y73	Z73	X74	Y74	Z74	X75	Y75	Z75	X76	Y76	Z76	X77	Y77	Z77	X78	Y78	Z78	X79	Y79	Z79	X80	Y80	Z80	X81	Y81	Z81	X82	Y82	Z82	X83	Y83	Z83	X84	Y84	Z84	X85	Y85	Z85	X86	Y86	Z86	X87	Y87	Z87	X88	Y88	Z88	X89	Y89	Z89	X90	Y90	Z90	X91	Y91	Z91	X92	Y92	Z92	X93	Y93	Z93	X94	Y94	Z94	X95	Y95	Z95	X96	Y96	Z96	X97	Y97	Z97	X98	Y98	Z98	X99	Y99	Z99	X100	Y100	Z100	X101	Y101	Z101	X102	Y102	Z102	X103	Y103	Z103	X104	Y104	Z104	X105	Y105	Z105	X106	Y106	Z106	X107	Y107	Z107	X108	Y108	Z108	X109	Y109	Z109	X110	Y110	Z110	X111	Y111	Z111	X112	Y112	Z112	X113	Y113	Z113	X114	Y114	Z114	X115	Y115	Z115	X116	Y116	Z116	X117	Y117	Z117	X118	Y118	Z118	X119	Y119	Z119	X120	Y120	Z120	X121	Y121	Z121	X122	Y122	Z122	X123	Y123	Z123	X124	Y124	Z124	X125	Y125	Z125	X126	Y126	Z126	X127	Y127	Z127	X128	Y128	Z128	X129	Y129	Z129	X130	Y130	Z130	X131	Y131	Z131	X132	Y132	Z132	X133	Y133	Z133	X134	Y134	Z134	X135	Y135	Z135	X136	Y136	Z136	X137	Y137	Z137	X138	Y138	Z138	X139	Y139	Z139	X140	Y140	Z140	X141	Y141	Z141	X142	Y142	Z142	X143	Y143	Z143	X144	Y144	Z144	X145	Y145	Z145	X146	Y146	Z146	X147	Y147	Z147	X148	Y148	Z148	X149	Y149	Z149	X150	Y150	Z150	X151	Y151	Z151	X152	Y152	Z152	X153	Y153	Z153	X154	Y154	Z154	X155	Y155	Z155	X156	Y156	Z156	X157	Y157	Z157	X158	Y158	Z158	X159	Y159	Z159	X160	Y160	Z160	X161	Y161	Z161	X162	Y162	Z162	X163	Y163	Z163	X164	Y164	Z164	X165	Y165	Z165	X166	Y166	Z166	X167	Y167	Z167	X168	Y168	Z168	X169	Y169	Z169	X170	Y170	Z170	X171	Y171	Z171	X172	Y172	Z172	X173	Y173	Z173	X174	Y174	Z174	X175	Y175	Z175	X176	Y176	Z176	X177	Y177	Z177	X178	Y178	Z178	X179	Y179	Z179	X180	Y180	Z180	X181	Y181	Z181	X182	Y182	Z182	X183	Y183	Z183	X184	Y184	Z184	X185	Y185	Z185	X186	Y186	Z186	X187	Y187	Z187	X188	Y188	Z188	X189	Y189	Z189	X190	Y190	Z190	X191	Y191	Z191	X192	Y192	Z192	X193	Y193	Z193	X194	Y194	Z194	X195	Y195	Z195	X196	Y196	Z196	X197	Y197	Z197	X198	Y198	Z198	X199	Y199	Z199	X200	Y200	Z200	X201	Y201	Z201	X202	Y202	Z202	X203	Y203	Z203	X204	Y204	Z204	X205	Y205	Z205	X206	Y206	Z206	X207	Y207	Z207	X208	Y208	Z208	X209	Y209	Z209	X210	Y210	Z210	X211	Y211	Z211	X212	Y212	Z212	X213	Y213	Z213	X214	Y214	Z214	X215	Y215	Z215	X216	Y216	Z216	X217	Y217	Z217	X218	Y218	Z218	X219	Y219	Z219	X220	Y220	Z220	X221	Y221	Z221	X222	Y222	Z222	X223	Y223	Z223	X224	Y224	Z224	X225	Y225	Z225	X226	Y226	Z226	X227	Y227	Z227	X228	Y228	Z228	X229	Y229	Z229	X230	Y230	Z230	X231	Y231	Z231
																																																																																																																																																																																																																																																																																																																																																																																																																																																																																																																																																																																																																																																																																																																						
57	0.373333333	-334.4975281	1545.652588	1297.595215	-332.6705627	1521.533081	1158.312256	-461.1628723	1543.155884	1304.905884	-483.5657043	1518.521362	1179.06311	-400.2481384	1406.48645	1147.775635	-393.0952454	1226.197266	1084.72644	-406.7202148	1338.757202	1265.054932	-407.8512878	1302.382202	1285.560547	-507.6525879	1268.011719	1075.01355	-254.0466919	1379.840576	1181.324341	-145.9422455	1189.235718	1151.824707	-88.60227203	1113.618652	1172.251099	-42.38067627	1070.316406	1193.483276	47.11540222	939.5009155	1269.823853	20.59621048	947.6026611	1333.825439	76.01026917	898.677124	1351.460815	-554.4758911	1368.070068	1173.81604	-622.5048218	1282.109985	1154.342285	-694.3463135	1093.379272	1143.164063	-818.199585	952.8891602	1198.169189	-843.817749	910.6681519	1216.172241	-843.7678223	936.1394653	1281.842896	-902.4609375	884.694397	1290.729858	-393.7136841	971.6328125	1079.990479	-254.3237305	934.3566284	1266.61438	-540.534729	934.322876	1257.633301	-206.3417053	643.7436523	1236.768555	-191.1017761	553.3927612	1155.489136	-235.4497833	567.1940918	1291.110107	-202.8951111	258.3243408	1178.607788	-188.0823669	179.6026306	1086.597046	-227.6170654	178.6192322	1223.213501	-275.4819641	39.3405304	1091.251465	-226.2887421	38.90338135	1252.062256	-583.6747437	661.0996704	1195.892212	-555.117981	589.5683594	1098.767822	-582.6451416	572.3388062	1238.850586	-577.1016846	267.622467	1153.193726	-555.2130127	202.8098602	1053.15625	-571.2466431	182.4840851	1193.016235	-495.2423401	41.24428177	1085.110229	-539.81604	39.91614532	1246.222412	-395.3415222	848.800354	1196.870361	-395.8055725	845.769043	1211.6698	-382.7528076	848.8018799	1197.265381	-396.1485596	972.1901245	1222.118652	-393.5622253	959.6010742	1138.7948	-393.7555847	958.3380127	1144.961182	-387.2678833	959.6018066	1138.99231	-393.9656067	1021.295898	1151.419067	-281.6502686	469.7702026	1217.630249	-274.8925171	472.5312195	1255.222046	-244.3004303	474.4217529	1210.574341	-332.4001465	848.8707275	1198.909424	-498.6152649	474.0765686	1205.511963	-505.8048096	475.9041748	1242.471802	-461.830719	470.3258667	1212.852905	-458.2827454	848.7298584	1194.831421	-266.3984375	45.4422493	1149.469727	-248.3827515	40.71046448	1182.958252	-231.4780579	49.62020874	1131.274048	-280.4421387	436.1600952	1212.231567	-505.3812256	50.50785446	1141.960571	-521.0413208	45.38116455	1177.797119	-469.1852417	47.61850739	1157.36438	-499.151123	440.5265503	1200.478149	-227.0257568	49.2388649	1252.772461	-227.9747925	62.54764175	1253.68689	-214.2756348	50.41341782	1248.9104	-266.2614441	55.21614838	1125.05835	-539.4680786	50.07998657	1247.174072	-539.0169678	63.25637817	1248.407715	-526.6923218	49.32436752	1250.572754	-504.9447021	60.82460403	1119.788818	-214.1442719	47.6228714	1294.807617	-214.4440155	51.82564163	1295.096436	-210.1179352	47.99383926	1293.588135	-226.5339661	49.51077652	1254.476807	-550.8126831	46.89228821	1289.109497	-550.6702271	51.05324936	1289.499023	-546.7781982	46.65365601	1290.182739	-539.9106445	50.28513336	1248.882446	-409.7285767	1443.560059	1127.248901	-392.5387573	1484.291016	1348.745361	-184.6775818	1448.80835	1108.818115	-418.1990356	1665.6604	1087.064209	-257.7135925	1333.061646	1178.62439	-178.9159546	1318.318115	1327.047729	-244.552536	1500.956909	1188.314941	-406.2857056	1340.11499	1258.20166	-546.7496338	1321.789429	1171.093628	-631.4627686	1299.333618	1312.420044	-519.4127197	1158.040649	1161.461182	-406.2855835	1340.11499	1258.20166	-406.285614	1340.11499	1258.20166	-416.6841431	1307.627075	1422.182861	-573.3917236	1337.647339	1247.116089	-401.7194214	1175.822998	1225.941772	-120.6505127	1095.210205	1170.508057	-208.7952271	1053.175537	913.8193359	-341.7155151	964.4996338	1267.824707	-257.713562	1333.061646	1178.62439	29.52077103	938.1699219	1300.709717	35.39966583	791.2145386	1116.681641	-160.1038208	826.0493774	1384.185791	-110.1385498	1084.217407	1179.622192	95.21728516	833.2417603	1392.031006	207.3812866	932.9341431	1425.886719	177.489624	781.116394	1272.952271	29.52077484	938.1699219	1300.709717	-662.350647	1077.514648	1152.838379	-501.6630859	1017.128784	943.3146973	-847.2370605	1177.766357	982.1524658	-546.7496338	1321.789429	1171.093628	-838.8845825	918.7493896	1250.809082	-779.5637817	753.1008301	1089.26001	-1001.929382	1007.157837	1100.287231	-674.7080688	1066.401001	1159.696289	-936.2583618	826.762146	1338.65625	-1059.593262	922.0962524	1301.773315	-905.1570435	916.8187256	1467.431152	-838.8845825	918.7494507	1250.809082	-0.367038369	1.7594558	-11.56442165	0.367038369	-1.7594558	-11.56442165	-4.256871223	-17.06013298	-2.679620266	-2.022186756	-15.11272621	-4.821392059	7.693770885	-12.06736946	-14.15581703	6.094417095	-9.252040863	-13.39560986	-3.213725567	-16.4372673	-12.75745773	-3.099999666	-11.41117096	-10.99152184	0.641174376	10.64981937	-5.655739307	0.303702712	8.185602188	-3.380619049	-4.47E-15	2.74E-31	-2.74E-31	-4.97E-17	-1.99E-15	-1.59E-15	5.68E-16	0	-9.272503853	5.33E-16	0	-8.705254555	1.151062369	-8.411849976	21.33175468	-1.151062369	8.411849976	21.33175468	-1.221103072	1.789593816	0.38029328	1.221103072	-1.789593816	0.38029328	-29.08142662	-29.47819138	-6.204017639	5.62E-16	3.36E-12	-35.1553421	11.0243187	123.6227341	-1.61044991	-26.59477615	-40.7206955	-7.784050465	3.70E-15	1.59E-14	-34.40221786	8.232670784	115.8180161	-7.175776482	1.562214375	-3.560767889	-11.10910416	-1.562214375	3.560767889	-11.10910416	2.149227142	4.367895603	-10.25560093	-2.149227142	-4.367895603	-10.25560093	1.30E-20	0.000213001	7.99E-37	-9.28E-21	-0.00015153	-5.68E-37	1.39E-21	2.27E-05	8.52E-38	-7.32E-21	-0.000119521	-4.48E-37	-3.25E-21	-5.30E-05	-1.99E-37	9.23E-22	1.51E-05	5.65E-38	3.17E-20	0.000517375	1.94E-36	3.17E-20	0.000517375	1.94E-36	1.83E-19	0.00299196	1.12E-35	1.83E-19	0.00299196	1.12E-35	-7.16E-21	-0.000116877	-4.38E-37	-6.33E-22	-1.03E-05	-3.87E-38	5.54E-22	9.04E-06	3.39E-38	7.13E-21	0.000116455	4.37E-37	-4.70E-22	-7.67E-06	-2.88E-38	1.53E-21	2.50E-05	9.38E-38	-398.0210266	1.304700017	259.0899963	-231.4150085	1.697000027	-251.3170013	-396.9869995	4.582600117	-949.9620361	0	0	0	0	0	0	-0.192333072	1.563656569	-0.113686666	0.156884983	1.569686294	-0.076166168	-0.063203521	0.590479195	0.073802061	0.043824874	0.591672182	0.077844389	-0.01249896	-0.006346014	0.141549855	0.008117601	-0.011542918	0.141543999	-0.001675041	4.459202766	0.914691031	-0.001675041	4.459202766	0.914691031	-0.134222284	8.844303131	1.753398895	-0.134222284	8.844303131	1.753398895	0.233897164	0.42499423	0.0747528	-0.181367129	0.44222033	0.109108463	0.102999493	0.133929074	0.13462542	-0.079524383	0.133368835	0.149623051	0.019899342	0.040200058	-0.038237792	-0.033189926	0.033748314	-0.03485762	0	0	0	0	0	0	0	0	0	0	0	0	-58.98242569	-2.542009115	14.24549866	-46.12647629	-1.677381873	5.651722908	-15.07428074	0.797518194	10.15088081	-10.37499237	0.540588975	11.1274929	-1.30310595	0.728832006	7.592354774	-0.934876502	0.509677649	7.557725906	-14.19021034	-2.875838041	-70.49035645	14.19021034	2.875838041	-70.49035645	-77.65344238	-29.60231209	928.0181885	77.65344238	29.60231209	928.0181885	-57.1913414	-9.868563652	36.20145035	-43.88723373	-7.702628136	45.46143723	-16.49219322	-0.455528647	22.1350174	-12.87767124	-0.517224669	25.22653389	-1.161103964	-8.34E-16	-2.234366417	-2.019677639	-4.33E-15	-2.115663767	-226.9068451	480.0423889	1207.03479	-552.5386963	482.2275696	1194.619507	-230.5625	46.48348618	1130.338257	-541.6773071	47.04983902	1125.60498	-281.6502686	469.7702026	1217.630249	-498.6152649	474.0765381	1205.511963	-266.5494385	49.64351654	1150.144531	-505.3143005	54.70160294	1142.589844	-194.9757233	673.2751465	1187.102173	-588.8026733	672.6552734	1178.148926	-168.6591949	253.335022	1126.263916	-610.854187	254.185257	1125.007813	-398.0210266	1.304700017	259.0899963	-231.4150085	1.697000027	-251.3170013	-396.9869995	4.582600117	-949.9620361	-397.8920288	934.2850342	1235.583008	-397.8920288	2.44E-14	1235.583008	0	0	0	0	0	0	0	0	0	0	0	0	-332.4002075	848.8707886	1198.909424	-458.2828369	848.7299805	1194.831421	-0.192333072	1.563656569	-0.113686666
58	0.38	-334.4915161	1545.649292	1297.633667	-332.6778259	1521.533569	1158.350464	-461.1584473	1543.149536	1304.961426	-483.572113	1518.516724	1179.11792	-400.2531738	1406.4823	1147.821411	-393.1017456	1226.192871	1084.771606	-406.7132263	1338.75354	1265.101318	-407.8417969	1302.378418	1285.606323	-507.661499	1268.003418	1075.071533	-254.0477295	1379.838745	1181.354248	-145.944931	1189.234497	1151.845459	-88.60196686	1113.61792	1172.267212	-42.37769699	1070.31604	1193.494507	47.1264267	939.5021973	1269.828735	20.61421394	947.6051636	1333.833862	76.0302887	898.6799927	1351.460938	-554.4768677	1368.062744	1173.872437	-622.5062256	1282.101929	1154.403564	-694.3453369	1093.370483	1143.230347	-818.1885376	952.8756104	1198.255493	-843.807373	910.6554565	1216.260498	-843.7514648	936.1263428	1281.930908	-902.4432373	884.6837158	1290.828857	-393.7153015	971.6368408	1080.046631	-254.3262634	934.3473511	1266.668457	-540.5394287	934.3189087	1257.682617	-206.3483276	643.7391968	1236.812378	-191.1046143	553.3937988	1155.519165	-235.4558258	567.1847534	1291.141479	-202.8973083	258.3239746	1178.61853	-188.084198	179.6074982	1086.60437	-227.6195679	178.6159515	1223.220581	-275.4836731	39.3424263	1091.25	-226.2889557	38.90309143	1252.061646	-583.6793213	661.0974731	1195.923462	-555.1195679	589.5728149	1098.794678	-582.6506958	572.3337402	1238.876831	-577.1017456	267.6231995	1153.201172	-555.2109985	202.8158722	1053.164063	-571.2476196	182.4824982	1193.021973	-495.2416382	41.24721527	1085.11084	-539.8182983	39.91464615	1246.223267	-395.3454895	848.7977295	1196.91687	-395.8097534	845.7654419	1211.716064	-382.7568054	848.7989502	1197.312012	-396.1504822	972.185791	1222.173096	-393.5634155	959.6019287	1138.848022	-393.756897	958.338501	1145.014404	-387.2690735	959.6025391	1139.045654	-393.9659424	1021.296021	1151.475952	-281.6523438	469.7669373	1217.645386	-274.8963013	472.5245972	1255.237549	-244.3024139	474.4194031	1210.591553	-332.4041748	848.8670044	1198.956787	-498.6194458	474.0740356	1205.533569	-505.809967	475.8994141	1242.493286	-461.8350525	470.322937	1212.875244	-458.2868958	848.7284546	1194.876831	-266.4006653	45.4432373	1149.470703	-248.3851318	40.71033096	1182.958984	-231.4804077	49.62177277	1131.275391	-280.4442749	436.157135	1212.245361	-505.3811646	50.50875473	1141.96582	-521.0419922	45.38060379	1177.801636	-469.1855774	47.6190567	1157.370361	-499.1550293	440.5242615	1200.498413	-227.0260468	49.23855591	1252.771973	-227.9752045	62.54730988	1253.686646	-214.2760315	50.41330338	1248.909668	-266.2644653	55.2175827	1125.058838	-539.4703979	50.07846069	1247.175171	-539.0192871	63.25482178	1248.40918	-526.6947021	49.32275009	1250.574219	-504.9431458	60.82658386	1119.791382	-214.1436462	47.62198639	1294.806885	-214.4433899	51.82474899	1295.095825	-210.1173401	47.9929924	1293.58728	-226.5343933	49.51063919	1254.476318	-550.8162842	46.88963318	1289.110107	-550.6738892	51.05059814	1289.499878	-546.7818604	46.65105057	1290.183594	-539.9123535	50.28413391	1248.883911	-409.7369385	1443.559082	1127.294678	-392.5270081	1484.285278	1348.790405	-184.6878967	1448.814819	1108.842285	-418.2182007	1665.660278	1087.116089	-257.7144165	1333.059814	1178.654541	-178.9002991	1318.316772	1327.070679	-244.5541687	1500.956421	1188.344116	-406.2792358	1340.111328	1258.248047	-546.7496338	1321.782349	1171.149414	-631.4526978	1299.324097	1312.482422	-519.4092407	1158.033447	1161.514648	-406.2792053	1340.111328	1258.248047	-406.2792664	1340.111328	1258.248047	-416.6626587	1307.622559	1422.230957	-573.3873291	1337.640015	1247.177124	-401.7122803	1175.818481	1225.987061	-120.650238	1095.209229	1170.527588	-208.8198853	1053.170776	913.8479004	-341.7047424	964.4980469	1267.867554	-257.7144165	1333.059814	1178.654541	29.53516579	938.171814	1300.716919	35.39746857	791.2138062	1116.690186	-160.0805359	826.0506592	1384.213013	-110.1372299	1084.216553	1179.640869	95.24154663	833.2457275	1392.027466	207.4074097	932.9354858	1425.868408	177.4967499	781.1217041	1272.940918	29.53514099	938.171814	1300.716797	-662.3483276	1077.506104	1152.900757	-501.6884155	1017.131348	943.3531494	-847.2598877	1177.76062	982.2440186	-546.7496338	1321.782349	1171.149414	-838.8709106	918.7365723	1250.896729	-779.5730591	753.0877686	1089.333252	-1001.940857	1007.149109	1100.397827	-674.7049561	1066.392212	1159.760376	-936.2359009	826.7536011	1338.763916	-1059.576904	922.0892944	1301.89209	-905.1151123	916.8183594	1467.532227	-838.8709717	918.7366333	1250.896729	-0.366292894	1.760565877	-11.5679245	0.366292894	-1.760565877	-11.5679245	-4.257396698	-17.06139946	-2.680427313	-2.021954536	-15.11454773	-4.822976589	7.695049763	-12.06574154	-14.15428162	6.093469143	-9.252674103	-13.39553452	-3.215204239	-16.43984795	-12.75449562	-3.100581646	-11.41098022	-10.99033833	0.641144991	10.64837837	-5.656728268	0.303733468	8.185025215	-3.38133812	-7.45E-15	4.56E-31	-4.56E-31	-5.22E-15	-3.98E-16	-7.95E-16	5.68E-16	0	-9.27341938	5.33E-16	0	-8.70617485	1.15053165	-8.412362099	21.33053589	-1.15053165	8.412362099	21.33053589	-1.222275019	1.783164263	0.383546293	1.222275019	-1.783164263	0.383546293	-29.08064461	-29.47896576	-6.20458889	3.74E-15	2.11E-12	-35.15546417	11.02370358	123.6218719	-1.608824611	-26.59514618	-40.7174263	-7.783393383	3.70E-15	-7.51E-13	-34.40401459	8.232336044	115.8151703	-7.179157257	1.562479258	-3.55553937	-11.10939789	-1.562479258	3.55553937	-11.10939789	2.151964664	4.373002529	-10.25401306	-2.151964664	-4.373002529	-10.25401306	1.27E-20	0.00020659	7.75E-37	-9.13E-21	-0.000149077	-5.59E-37	1.40E-21	2.28E-05	8.55E-38	-6.99E-21	-0.000114092	-4.28E-37	-3.25E-21	-5.31E-05	-1.99E-37	9.43E-22	1.54E-05	5.77E-38	3.21E-20	0.000524987	1.97E-36	3.21E-20	0.000524987	1.97E-36	1.91E-19	0.003118337	1.17E-35	1.91E-19	0.003118337	1.17E-35	-6.91E-21	-0.000112918	-4.23E-37	-1.40E-21	-2.28E-05	-8.56E-38	5.47E-22	8.93E-06	3.35E-38	7.54E-21	0.000123167	4.62E-37	-4.43E-22	-7.23E-06	-2.71E-38	1.51E-21	2.46E-05	9.24E-38	-398.0210266	1.304700017	259.0899963	-231.4150085	1.697000027	-251.3170013	-396.9869995	4.582600117	-949.9620361	0	0	0	0	0	0	-0.192374304	1.563661933	-0.113537014	0.156904578	1.56968689	-0.076076552	-0.063216023	0.590475082	0.07382489	0.043829862	0.591668487	0.077865474	-0.012501403	-0.006348741	0.141549498	0.008117933	-0.011546151	0.141543701	-0.00159024	4.4591465	0.914963067	-0.00159024	4.4591465	0.914963067	-0.134413064	8.844293594	1.75344336	-0.134413064	8.844293594	1.75344336	0.233897373	0.424992532	0.074759521	-0.181381136	0.44222331	0.109085895	0.102999166	0.133926466	0.13462773	-0.079535842	0.133372426	0.149617493	0.019899709	0.040200077	-0.038237147	-0.033188321	0.033748403	-0.034860495	0	0	0	0	0	0	0	0	0	0	0	0	-58.99355698	-2.542231083	14.20073605	-46.13128662	-1.677645922	5.624285698	-15.07738781	0.79768604	10.15627384	-10.37601662	0.540600598	11.13278294	-1.303125501	0.728980899	7.592241764	-0.934847176	0.509699225	7.557444572	-14.18539524	-2.876963615	-70.58514404	14.18539524	2.876963615	-70.58514404	-77.66168213	-29.61886406	927.9522095	77.66168213	29.61886406	927.9522095	-57.19088745	-9.868452072	36.20285797	-43.89290619	-7.704913139	45.45598221	-16.49205589	-0.455454618	22.13549614	-12.88102627	-0.517303288	25.22547913	-1.161121607	1.24E-15	-2.234237671	-2.019533873	2.46E-15	-2.11588192	-226.9088287	480.0419922	1207.053223	-552.5425415	482.2255554	1194.640137	-230.5646667	46.48530197	1130.339478	-541.6768188	47.05105972	1125.609131	-281.6523438	469.7669373	1217.645386	-498.6194458	474.0740356	1205.533447	-266.5516663	49.64446259	1150.145752	-505.3142395	54.70247269	1142.595215	-194.9785004	673.2744141	1187.139771	-588.8062744	672.6546021	1178.180176	-168.6617584	253.3358002	1126.272217	-610.8548584	254.1856537	1125.018555	-398.0210266	1.304700017	259.0899963	-231.4150085	1.697000027	-251.3170013	-396.9869995	4.582600117	-949.9620361	-397.8898315	934.2816772	1235.619019	-397.8898315	2.44E-14	1235.619019	0	0	0	0	0	0	0	0	0	0	0	0	-332.4042358	848.8670044	1198.956787	-458.2867737	848.7284546	1194.876831	-0.192374304	1.563661933	-0.113537014
